#N canvas 207 87 1233 631 10;
#X obj 106 475 nbx 4 14 -1e+37 1e+37 0 0 empty empty empty 0 -8 0 10
-257985 -258113 -1 1083 256;
#X obj 153 475 nbx 3 14 -1e+37 1e+37 0 0 empty empty empty 0 -8 0 10
-258113 -257985 -1 0 256;
#X obj 207 474 tgl 15 0 empty empty empty 17 7 0 10 -99865 -258113
-1 1 1;
#X obj 207 386 s onof1;
#X obj 222 196 s att;
#X obj 250 245 s med;
#X obj 279 293 s delta;
#X obj 307 189 s theta;
#X obj 409 139 s lalpha;
#X obj 437 188 s halpha;
#X obj 466 232 s lbeta;
#X obj 494 287 s hbeta;
#X obj 523 190 s lgamma;
#X obj 551 139 s hgamma;
#X obj 274 386 s onof2;
#X obj 341 386 s onof3;
#X obj 408 386 s onof4;
#X obj 475 385 s onof5;
#X obj 542 397 s onof6;
#X obj 609 377 s onof7;
#X obj 676 375 s onof8;
#X obj 743 373 s onof9;
#X obj 810 377 s onof10;
#X obj 274 492 nbx 5 14 -1e+37 1e+37 0 0 empty empty empty 0 -8 0 10
-203904 -1 -1 61 256;
#X obj 274 561 r med;
#X obj 207 492 nbx 5 14 -1e+37 1e+37 0 0 empty empty empty 0 -8 0 10
-261682 -1 -1 63 256;
#X obj 207 561 r att;
#X obj 341 567 r delta;
#X obj 408 566 r theta;
#X obj 408 492 nbx 5 14 -1e+37 1e+37 0 0 empty empty empty 0 -8 0 10
-262130 -1 -1 6.27537 256;
#X obj 341 492 nbx 5 14 -1e+37 1e+37 0 0 empty empty empty 0 -8 0 10
-228856 -1 -1 20.7159 256;
#X obj 475 565 r lalpha;
#X obj 542 566 r halpha;
#X obj 542 492 nbx 5 14 -1e+37 1e+37 0 0 empty empty empty 0 -8 0 10
-203904 -1 -1 3.1105 256;
#X obj 475 492 nbx 5 14 -1e+37 1e+37 0 0 empty empty empty 0 -8 0 10
-232576 -1 -1 1.72575 256;
#X obj 810 563 r hgamma;
#X obj 743 565 r lgamma;
#X obj 675 563 r hbeta;
#X obj 609 566 r lbeta;
#X obj 675 492 nbx 5 14 -1e+37 1e+37 0 0 empty empty empty 0 -8 0 10
-261682 -1 -1 1.4111 256;
#X obj 609 492 nbx 5 14 -1e+37 1e+37 0 0 empty empty empty 0 -8 0 10
-262130 -1 -1 2.80525 256;
#X obj 810 492 nbx 5 14 -1e+37 1e+37 0 0 empty empty empty 0 -8 0 10
-228856 -1 -1 0.491 256;
#X obj 743 492 nbx 5 14 -1e+37 1e+37 0 0 empty empty empty 0 -8 0 10
-191407 -1 -1 1.36 256;
#X obj 274 474 tgl 15 0 empty empty empty 17 7 0 10 -99865 -258113
-1 1 1;
#X obj 341 474 tgl 15 0 empty empty empty 17 7 0 10 -99865 -258113
-1 1 1;
#X obj 408 474 tgl 15 0 empty empty empty 17 7 0 10 -99865 -258113
-1 1 1;
#X obj 475 474 tgl 15 0 empty empty empty 17 7 0 10 -99865 -258113
-1 1 1;
#X obj 542 474 tgl 15 0 empty empty empty 17 7 0 10 -99865 -258113
-1 1 1;
#X obj 609 474 tgl 15 0 empty empty empty 17 7 0 10 -99865 -258113
-1 1 1;
#X obj 676 474 tgl 15 0 empty empty empty 17 7 0 10 -99865 -258113
-1 1 1;
#X obj 743 474 tgl 15 0 empty empty empty 17 7 0 10 -99865 -258113
-1 1 1;
#X obj 810 474 tgl 15 0 empty empty empty 17 7 0 10 -99865 -258113
-1 1 1;
#X obj 269 330 cnv 15 600 1 empty empty empty 20 12 0 14 -233017 -66577
0;
#X obj 759 36 cnv 15 50 15 empty empty empty 20 12 0 14 -233017 -66577
0;
#X obj 165 28 inlet;
#X obj 165 67 route cnt sig att med dlt tht;
#X obj 409 66 route lap hap lbt hbt lgm hgm;
#X obj 222 165 _spigot 1;
#X obj 250 221 _spigot 2;
#X obj 279 269 _spigot 3;
#X obj 307 163 _spigot 4;
#X obj 409 115 _spigot 5;
#X obj 437 164 _spigot 6;
#X obj 466 212 _spigot 7;
#X obj 494 259 _spigot 8;
#X obj 523 167 _spigot 9;
#X obj 551 114 _spigot 10;
#X obj 165 112 s \$1-count;
#X obj 193 141 s \$1-signal;
#X obj 106 448 r \$1-count;
#X obj 153 419 r \$1-signal;
#X connect 2 0 3 0;
#X connect 24 0 23 0;
#X connect 26 0 25 0;
#X connect 27 0 30 0;
#X connect 28 0 29 0;
#X connect 31 0 34 0;
#X connect 32 0 33 0;
#X connect 35 0 41 0;
#X connect 36 0 42 0;
#X connect 37 0 39 0;
#X connect 38 0 40 0;
#X connect 43 0 14 0;
#X connect 44 0 15 0;
#X connect 45 0 16 0;
#X connect 46 0 17 0;
#X connect 47 0 18 0;
#X connect 48 0 19 0;
#X connect 49 0 20 0;
#X connect 50 0 21 0;
#X connect 51 0 22 0;
#X connect 54 0 55 0;
#X connect 54 0 56 0;
#X connect 55 0 67 0;
#X connect 55 1 68 0;
#X connect 55 2 57 0;
#X connect 55 3 58 0;
#X connect 55 4 59 0;
#X connect 55 5 60 0;
#X connect 56 0 61 0;
#X connect 56 1 62 0;
#X connect 56 2 63 0;
#X connect 56 3 64 0;
#X connect 56 4 65 0;
#X connect 56 5 66 0;
#X connect 57 0 4 0;
#X connect 58 0 5 0;
#X connect 59 0 6 0;
#X connect 60 0 7 0;
#X connect 61 0 8 0;
#X connect 62 0 9 0;
#X connect 63 0 10 0;
#X connect 64 0 11 0;
#X connect 65 0 12 0;
#X connect 66 0 13 0;
#X connect 69 0 0 0;
#X connect 70 0 1 0;
#X coords 0 -1 1 1 770 36 2 100 472;
