#N canvas 15 22 958 746 10;
#X obj 731 -7 scale_val;
#X text 792 -7 <-ouvrir;
#X obj 78 53 cnv 15 770 36 empty empty empty 20 12 0 14 -233017 -66577
0;
#X obj 200 55 cnv 15 50 15 empty empty Attention 3 8 1 10 -233017 -66577
0;
#X obj 267 55 cnv 15 50 15 empty empty Méditation 3 8 1 10 -233017
-66577 0;
#X obj 334 55 cnv 15 50 15 empty empty Delta 3 8 1 10 -233017 -66577
0;
#X obj 401 55 cnv 15 50 15 empty empty Theta 3 8 1 10 -233017 -66577
0;
#X obj 468 55 cnv 15 50 15 empty empty lowAlpha 3 8 1 10 -233017 -66577
0;
#X obj 535 55 cnv 15 50 15 empty empty highAlpha 3 8 1 10 -233017 -66577
0;
#X obj 602 55 cnv 15 50 15 empty empty lowBeta 3 8 1 10 -233017 -66577
0;
#X obj 669 55 cnv 15 50 15 empty empty highBeta 3 8 1 10 -233017 -66577
0;
#X obj 736 55 cnv 15 50 15 empty empty lowGamma 3 8 1 10 -233017 -66577
0;
#X obj 803 55 cnv 15 43 15 empty empty highGam 0 8 1 10 -233017 -66577
0;
#X obj 131 73 cnv 15 50 15 empty empty signal 3 8 1 10 -233017 -66577
0;
#X obj 77 53 interface_sig;
#X obj 78 73 cnv 15 50 15 empty empty compteur 3 8 1 10 -233017 -66577
0;
#X obj 77 21 cnv 15 770 30 empty empty empty 20 12 0 14 -233017 -66577
0;
#X obj 77 21 liste_valeurs;
#X obj 114 679 dac~;
#X obj 246 578 vsl 30 50 0 1 0 1 empty mainvolume empty 0 -8 0 8 -262144
-1 -1 4900 1;
#N canvas 0 22 450 300 (subpatch) 0;
#X array array1 50 float 1;
#A 0 0.28094 0.245225 0.195225 -0.119063 -0.126205 -0.119063 -0.11192
-0.104777 -0.0976338 -0.0976338 -0.0976338 0.173796 0.123796 0.0666529
0.0452242 0.0237955 -0.011919 0.0523671 0.238083 0.252368 0.173796
0.166654 0.159511 0.159511 0.10951 0.0809387 0.0452242 0.0166526 0.00950968
-0.0904909 -0.0904909 -0.0904909 -0.0904909 -0.0904909 -0.0904909 -0.0904909
-0.083348 -0.083348 -0.083348 -0.083348 -0.0762051 -0.0762051 -0.0762051
-0.0762051 -0.0690622 -0.0690622 -0.0690622 -0.0690622 -0.0690622 -0.0690622
;
#X coords 0 1 49 0 200 140 1;
#X restore 261 119 graph;
#X floatatom 202 263 5 0 0 0 - - -;
#X floatatom 162 261 5 0 0 0 - - -;
#X obj 202 145 vsl 15 100 0 200 0 1 empty empty empty 0 -8 0 8 -262144
-1 -1 700 1;
#X obj 173 145 vsl 15 100 0 10000 0 1 empty empty empty 0 -8 0 8 -262144
-1 -1 500 1;
#X obj 264 259 hsl 195 15 0 50 0 0 empty empty empty -2 -6 0 8 -262144
-1 -1 3234 1;
#N canvas 0 22 450 300 (subpatch) 0;
#X array array2 50 float 1;
#A 0 -0.126212 -0.119069 -0.111926 -0.090497 -0.061925 -0.0190668 0.0166483
0.0595064 0.102365 0.145223 0.166652 -0.069068 -0.069068 -0.069068
-0.069068 -0.069068 -0.069068 -0.069068 -0.069068 -0.069068 -0.069068
-0.069068 -0.069068 -0.069068 -0.069068 -0.069068 -0.069068 -0.069068
-0.069068 -0.069068 -0.069068 -0.069068 -0.069068 -0.069068 -0.069068
-0.069068 -0.069068 -0.061925 -0.061925 -0.061925 -0.0547819 -0.0547819
-0.0547819 -0.0547819 -0.0547819 -0.0547819 -0.0547819 -0.0547819 -0.0547819
-0.0547819;
#X coords 0 1 49 0 200 140 1;
#X restore 665 123 graph;
#X floatatom 609 238 5 0 0 0 - - -;
#X floatatom 569 238 5 0 0 0 - - -;
#X obj 611 129 vsl 15 100 0 200 0 1 empty empty empty 0 -8 0 8 -262144
-1 -1 1400 1;
#X obj 576 130 vsl 15 100 0 10000 0 1 empty empty empty 0 -8 0 8 -262144
-1 -1 800 1;
#X obj 668 263 hsl 195 15 0 50 0 0 empty empty empty -2 -6 0 8 -262144
-1 -1 4354 1;
#X obj 789 287 hradio 15 1 0 8 empty empty empty 0 -6 0 8 -262144 -1
-1 5;
#N canvas 0 22 450 300 (subpatch) 0;
#X array array3 50 float 1;
#A 0 0.380943 0.29523 0.259516 0.238088 0.202374 0.0738038 0.0238044
0.0095188 0.0095188 0.0095188 0.338087 0.330944 0.316658 0.10237 0.0809412
0.0595124 0.0523694 0.0380836 0.0237977 0.0166547 0.0095116 -0.00477429
-0.00477429 -0.00477429 0.0452263 0.088084 0.095227 0.145228 0.202371
0.259515 0.266658 0.259515 0.245229 0.230943 0.216657 0.209514 0.195225
0.180939 0.159511 0.123797 0.0952256 0.0737972 0.0523689 0.0309405
0.0309405 0.0166549 0.0166549 0.00951213 0.00236934 -0.00477345;
#X coords 0 1 49 0 200 140 1;
#X restore 671 313 graph;
#X floatatom 614 431 5 0 0 0 - - -;
#X floatatom 575 432 5 0 0 0 - - -;
#X obj 614 323 vsl 15 100 0 200 0 1 empty empty empty 0 -8 0 8 -262144
-1 -1 1000 1;
#X obj 575 323 vsl 15 100 0 10000 0 1 empty empty empty 0 -8 0 8 -262144
-1 -1 292 1;
#X obj 674 453 hsl 195 15 0 50 0 0 empty empty empty -2 -6 0 8 -262144
-1 -1 1394 1;
#X obj 61 202 vsl 15 50 0 1 0 0 empty empty empty 0 -8 0 8 -262144
-1 -1 3300 1;
#X obj 533 200 vsl 15 50 0 1 0 0 empty empty empty 0 -8 0 8 -262144
-1 -1 900 1;
#X obj 514 200 vsl 15 50 0 1 0 0 empty empty empty 0 -8 0 8 -262144
-1 -1 500 1;
#X obj 525 385 vsl 15 50 0 1 0 0 empty empty empty 0 -8 0 8 -262144
-1 -1 1300 1;
#X obj 501 385 vsl 15 50 0 1 0 0 empty empty empty 0 -8 0 8 -262144
-1 -1 1300 1;
#X obj 106 262 *~ 0.5;
#X obj 481 263 *~ 0.5;
#X obj 478 446 *~ 0.6;
#X obj 521 446 *~ 0.4;
#X obj 82 202 vsl 15 50 0 1 0 0 empty empty empty 0 -8 0 8 -262144
-1 -1 3400 1;
#N canvas 0 22 364 274 noise 0;
#X obj 7 160 outlet~;
#X obj 9 109 osc~;
#X obj 9 6 loadbang;
#X obj 67 8 bng 15 250 50 0 empty empty empty 0 -6 0 8 -262144 -1 -1
;
#X floatatom 63 27 5 0 0 0 - - -;
#X obj 9 45 random 5000;
#X obj 9 67 / 5000;
#X obj 9 88 * 15000;
#X obj 8 131 *~;
#X obj 50 129 inlet~;
#X floatatom 61 107 5 0 0 0 - - -;
#X obj 8 26 metro 22;
#X connect 1 0 8 0;
#X connect 2 0 11 0;
#X connect 3 0 11 0;
#X connect 4 0 11 1;
#X connect 5 0 6 0;
#X connect 6 0 7 0;
#X connect 7 0 1 0;
#X connect 7 0 10 0;
#X connect 8 0 0 0;
#X connect 9 0 8 1;
#X connect 11 0 5 0;
#X restore 673 665 pd noise;
#N canvas 0 22 450 300 (subpatch) 0;
#X array array4 50 float 1;
#A 0 0.445232 0.359516 0.295229 0.152368 -0.00477809 -0.133352 -0.126209
-0.126209 -0.119066 -0.119066 -0.111923 -0.111923 -0.111923 -0.111923
-0.111923 -0.111923 -0.111923 -0.111923 -0.111923 -0.10478 -0.10478
-0.10478 -0.10478 -0.10478 -0.10478 -0.10478 -0.0976374 -0.0976374
-0.0976374 -0.0976374 -0.0976374 -0.0976374 -0.0904943 -0.0904943 -0.0904943
-0.0904943 -0.0904943 -0.0904943 -0.0904943 -0.0904943 -0.0904943 -0.0904943
-0.0904943 -0.0904943 -0.0904943 -0.0904943 -0.0904943 -0.0904943 -0.0904943
-0.0904943;
#X coords 0 1 49 0 200 140 1;
#X restore 670 507 graph;
#X floatatom 629 642 5 0 0 0 - - -;
#X floatatom 588 641 6 0 0 0 - - -;
#X obj 629 534 vsl 15 100 0 200 0 1 empty empty empty 0 -8 0 8 -262144
-1 -1 0 1;
#X obj 591 535 vsl 15 100 1000 40000 0 1 empty empty empty 0 -8 0 8
-262144 -1 -1 0 1;
#X obj 673 647 hsl 195 15 0 50 0 0 empty empty empty -2 -6 0 8 -262144
-1 -1 19400 1;
#X obj 496 579 vsl 15 50 0 1 0 0 empty empty empty 0 -8 0 8 -262144
-1 -1 0 1;
#X obj 472 579 vsl 15 50 0 1 0 0 empty empty empty 0 -8 0 8 -262144
-1 -1 0 1;
#N canvas 734 115 300 384 memmetro4 0;
#X obj 25 64 bng 15 250 50 0 empty empty empty 0 -6 0 8 -262144 -1
-1;
#X floatatom 26 166 5 0 0 0 - - -;
#X obj 48 141 + 1;
#X msg 66 96 0;
#X obj 25 141 int;
#X obj 25 100 t b f;
#X msg 26 208 0;
#X obj 25 81 t b b;
#X obj 101 97 pack;
#X floatatom 76 272 5 0 0 0 - - -;
#X obj 65 163 select 0;
#X msg 89 185 0 0;
#X obj 101 76 / 50;
#X obj 26 185 select 50;
#X obj 76 211 line~;
#X obj 76 231 env~;
#X obj 76 251 dbtorms;
#X obj 76 289 select 50;
#X obj 121 270 int;
#X obj 25 120 metro 122;
#X obj 25 24 inlet;
#X obj 147 205 line~;
#X obj 147 227 env~;
#X obj 147 248 dbtorms;
#X obj 147 291 select;
#X obj 147 270 t f f;
#X msg 147 185 0;
#X obj 148 50 outlet~;
#X obj 84 120 inlet;
#X obj 101 33 inlet;
#X obj 177 184 outlet;
#X obj 60 67 outlet;
#X obj 28 230 outlet;
#X obj 192 93 select;
#X obj 192 71 t f f;
#X obj 139 69 env~;
#X obj 139 90 dbtorms;
#X floatatom 192 137 5 0 0 0 - - -;
#X obj 192 115 outlet;
#X obj 32 289 outlet;
#X obj 139 114 outlet;
#X obj 139 29 tabread4~ array4;
#X obj 25 44 metro 40000;
#X connect 0 0 7 0;
#X connect 1 0 10 0;
#X connect 1 0 13 0;
#X connect 2 0 4 1;
#X connect 3 0 4 1;
#X connect 4 0 2 0;
#X connect 4 0 1 0;
#X connect 5 0 19 0;
#X connect 5 1 3 0;
#X connect 6 0 19 0;
#X connect 6 0 32 0;
#X connect 7 0 5 0;
#X connect 7 1 31 0;
#X connect 8 0 14 0;
#X connect 9 0 18 0;
#X connect 9 0 39 0;
#X connect 10 0 11 0;
#X connect 10 1 8 0;
#X connect 11 0 14 0;
#X connect 12 0 8 1;
#X connect 13 0 6 0;
#X connect 14 0 15 0;
#X connect 14 0 41 0;
#X connect 15 0 16 0;
#X connect 16 0 9 0;
#X connect 17 0 26 0;
#X connect 18 0 17 0;
#X connect 19 0 4 0;
#X connect 20 0 42 0;
#X connect 21 0 22 0;
#X connect 22 0 23 0;
#X connect 23 0 25 0;
#X connect 25 0 24 1;
#X connect 25 1 24 0;
#X connect 26 0 21 0;
#X connect 26 0 30 0;
#X connect 28 0 19 1;
#X connect 29 0 12 0;
#X connect 29 0 42 1;
#X connect 33 1 37 0;
#X connect 33 1 38 0;
#X connect 34 0 33 1;
#X connect 34 1 33 0;
#X connect 35 0 36 0;
#X connect 36 0 34 0;
#X connect 36 0 40 0;
#X connect 41 0 35 0;
#X connect 41 0 27 0;
#X connect 42 0 0 0;
#X restore 582 665 pd memmetro4;
#X obj 459 641 *~ 0.2;
#X obj 509 641 *~ 0.4;
#N canvas 0 22 450 300 (subpatch) 0;
#X array array5 50 float 1;
#A 0 0.295232 0.273803 0.152372 0.152372 0.152372 0.145229 0.145229
0.145229 0.145229 0.141657 0.138085 0.138085 0.134514 0.130942 0.130942
0.130942 0.130942 0.130942 0.130942 0.130942 0.130942 0.130942 0.130942
0.130942 0.130942 0.130942 0.130942 0.130942 0.130942 0.130942 0.130942
0.130942 0.130942 0.130942 0.130942 0.130942 0.130942 0.130942 0.130942
0.130942 0.130942 0.130942 0.130942 0.130942 0.130942 0.130942 0.130942
0.130942 0.130942 0.130942;
#X coords 0 1 49 0 200 140 1;
#X restore 250 311 graph;
#X floatatom 195 426 5 0 0 0 - - -;
#X floatatom 155 426 5 0 0 0 - - -;
#X obj 201 318 vsl 15 100 0 200 0 1 empty empty empty 0 -8 0 8 -262144
-1 -1 2400 1;
#X obj 162 319 vsl 15 100 0 10000 0 1 empty empty empty 0 -8 0 8 -262144
-1 -1 400 1;
#X obj 253 451 hsl 195 15 0 50 0 0 empty empty empty -2 -6 0 8 -262144
-1 -1 19400 1;
#X obj 332 474 hradio 15 1 0 8 empty empty empty 0 -6 0 8 -262144 -1
-1 0;
#X obj 114 393 vsl 15 50 0 1 0 0 empty empty empty 0 -8 0 8 -262144
-1 -1 0 1;
#X obj 90 393 vsl 15 50 0 1 0 0 empty empty empty 0 -8 0 8 -262144
-1 -1 0 1;
#X obj 82 452 *~ 0.5;
#X obj 130 452 *~ 0.2;
#X obj 104 315 tgl 50 0 empty toggle3 empty 0 -6 0 8 -262144 -1 -1
0 1;
#X obj 509 136 tgl 50 0 empty toggle2 empty 0 -6 0 8 -262144 -1 -1
1 1;
#X obj 109 203 tgl 50 0 empty toggle1 empty 0 -6 0 8 -262144 -1 -1
1 1;
#X obj 526 580 tgl 50 0 empty toggle4 empty 0 -6 0 8 -262144 -1 -1
1 1;
#X obj 482 328 tgl 50 0 empty toggle5 empty 0 -6 0 8 -262144 -1 -1
1 1;
#N canvas 99 101 336 206 loadbang 0;
#X obj 16 13 loadbang;
#X obj 34 39 delay 500;
#X msg 16 65 1;
#X msg 43 65 0;
#X obj 17 91 s toggle1;
#X obj 17 113 s toggle3;
#X obj 76 91 s toggle2;
#X obj 76 113 s toggle4;
#X obj 17 134 s toggle5;
#X obj 111 35 r allon;
#X obj 170 33 r alloff;
#X msg 233 30 \; pd dsp 1;
#X obj 182 75 delay 1000;
#X msg 201 116 1 3000;
#X obj 202 139 line 1 0;
#X obj 186 95 t b b;
#X msg 251 115 0;
#X obj 187 165 s mainvolume;
#X msg 283 115 0 7000;
#X obj 261 78 delay 2000;
#X msg 149 115 1 2000;
#X connect 0 0 2 0;
#X connect 0 0 1 0;
#X connect 0 0 11 0;
#X connect 0 0 12 0;
#X connect 1 0 3 0;
#X connect 2 0 4 0;
#X connect 2 0 5 0;
#X connect 2 0 6 0;
#X connect 2 0 7 0;
#X connect 2 0 8 0;
#X connect 3 0 4 0;
#X connect 3 0 5 0;
#X connect 3 0 6 0;
#X connect 3 0 7 0;
#X connect 3 0 8 0;
#X connect 9 0 2 0;
#X connect 9 0 20 0;
#X connect 10 0 3 0;
#X connect 10 0 19 0;
#X connect 12 0 15 0;
#X connect 13 0 14 0;
#X connect 14 0 17 0;
#X connect 15 0 13 0;
#X connect 15 1 16 0;
#X connect 16 0 14 0;
#X connect 18 0 14 0;
#X connect 19 0 18 0;
#X connect 20 0 14 0;
#X restore 353 547 pd loadbang;
#X obj 226 514 bng 50 250 50 0 allon empty all_on! 0 -6 0 10 -24198
-1 -1;
#X obj 280 514 bng 50 250 50 0 alloff empty all_off! 0 -6 0 10 -258699
-1 -1;
#N canvas 0 22 458 308 sequence 0;
#X obj 33 35 inlet;
#X obj 122 34 inlet;
#X floatatom 142 87 0 0 0 0 - - -;
#X obj 52 93 delay 9e+06;
#X obj 16 140 s allon;
#X obj 69 133 s alloff;
#X obj 261 62 loadbang;
#X obj 262 107 s seqlength;
#X msg 261 85 150;
#X obj 135 67 * 60000;
#X connect 0 0 3 0;
#X connect 0 0 4 0;
#X connect 1 0 9 0;
#X connect 3 0 5 0;
#X connect 6 0 8 0;
#X connect 8 0 7 0;
#X connect 9 0 2 0;
#X connect 9 0 3 1;
#X restore 292 648 pd sequence;
#X floatatom 338 620 4 0 9999 2 length_in_seconds seqlength -;
#X obj 292 609 bng 30 250 50 0 empty empty start! 0 -6 0 10 -262144
-1 -1;
#N canvas 132 268 301 278 instrument1 1;
#X obj 9 186 outlet~;
#X obj 64 187 outlet;
#X obj 112 187 outlet;
#X obj 18 24 inlet;
#X obj 65 23 inlet;
#X obj 118 23 inlet;
#N canvas 435 147 466 316 note-selector 0;
#X obj 31 32 inlet;
#X msg 59 103 42;
#X msg 89 103 44;
#X floatatom -11 78 5 0 0 0 - - -;
#X obj 100 163 outlet;
#X msg 119 103 47;
#X msg 149 103 49;
#X msg 179 103 52;
#X msg 209 103 54;
#X msg 241 103 56;
#X obj 54 76 select 0 1 2 3 4 5 6 7 8;
#X msg 100 9 origin / random 1 12;
#X obj 29 55 random 0;
#X msg 31 126 20;
#X msg -6 174 origin / 40;
#X connect 0 0 12 0;
#X connect 1 0 4 0;
#X connect 2 0 4 0;
#X connect 5 0 4 0;
#X connect 6 0 4 0;
#X connect 7 0 4 0;
#X connect 8 0 4 0;
#X connect 9 0 4 0;
#X connect 10 0 13 0;
#X connect 10 1 1 0;
#X connect 10 2 2 0;
#X connect 10 3 5 0;
#X connect 10 4 6 0;
#X connect 10 5 7 0;
#X connect 10 6 8 0;
#X connect 10 7 9 0;
#X connect 12 0 3 0;
#X connect 12 0 10 0;
#X connect 13 0 4 0;
#X restore 43 151 pd note-selector;
#N canvas 9 27 394 334 synth1 0;
#X obj 7 88 osc~ 440;
#X obj 7 69 mtof;
#X floatatom 7 53 5 0 0 0 - - -;
#X obj 34 220 *~;
#X obj 69 88 osc~ 440;
#X obj 69 69 mtof;
#X floatatom 69 53 5 0 0 0 - - -;
#X obj 129 68 + 7;
#X obj 104 222 inlet;
#X obj 26 15 inlet;
#X obj 34 243 outlet~;
#X obj 95 111 vsl 15 50 0 1 0 1 empty empty empty 0 -8 0 8 -262144
-1 -1 1800 1;
#X obj 32 112 vsl 15 50 0 1 0 1 empty empty empty 0 -8 0 8 -262144
-1 -1 1800 1;
#X floatatom 29 170 5 0 0 0 - - -;
#X floatatom 93 171 5 0 0 0 - - -;
#X obj 158 87 osc~ 440;
#X obj 158 68 mtof;
#X floatatom 158 52 5 0 0 0 - - -;
#X obj 184 110 vsl 15 50 0 1 0 1 empty empty empty 0 -8 0 8 -262144
-1 -1 2700 1;
#X floatatom 182 171 5 0 0 0 - - -;
#X obj 218 67 + 12;
#X obj 252 86 osc~ 440;
#X obj 252 67 mtof;
#X floatatom 252 51 5 0 0 0 - - -;
#X obj 278 109 vsl 15 50 0 1 0 1 empty empty empty 0 -8 0 8 -262144
-1 -1 3300 1;
#X floatatom 276 168 5 0 0 0 - - -;
#X obj 312 66 + 24;
#X obj 165 219 inlet~;
#X obj 4 189 *~ 0.3;
#X obj 68 189 *~ 0.36;
#X obj 157 188 *~ 0.5;
#X obj 251 187 *~ 0.673;
#X connect 0 0 28 0;
#X connect 1 0 0 0;
#X connect 2 0 1 0;
#X connect 2 0 7 0;
#X connect 2 0 20 0;
#X connect 2 0 26 0;
#X connect 3 0 10 0;
#X connect 4 0 29 0;
#X connect 5 0 4 0;
#X connect 6 0 5 0;
#X connect 7 0 6 0;
#X connect 8 0 3 1;
#X connect 9 0 2 0;
#X connect 11 0 14 0;
#X connect 12 0 13 0;
#X connect 13 0 28 1;
#X connect 14 0 29 1;
#X connect 15 0 30 0;
#X connect 16 0 15 0;
#X connect 17 0 16 0;
#X connect 18 0 19 0;
#X connect 19 0 30 1;
#X connect 20 0 17 0;
#X connect 21 0 31 0;
#X connect 22 0 21 0;
#X connect 23 0 22 0;
#X connect 24 0 25 0;
#X connect 25 0 31 1;
#X connect 26 0 23 0;
#X connect 27 0 3 1;
#X connect 28 0 3 0;
#X connect 29 0 3 0;
#X connect 30 0 3 0;
#X connect 31 0 3 0;
#X restore 26 106 pd synth1;
#X floatatom 118 118 5 0 0 0 - - -;
#N canvas 734 115 268 352 metro1 0;
#X obj 25 64 bng 15 250 50 0 empty empty empty 0 -6 0 8 -262144 -1
-1;
#X floatatom 26 166 5 0 0 0 - - -;
#X obj 48 141 + 1;
#X msg 66 96 0;
#X obj 25 141 int;
#X obj 25 100 t b f;
#X msg 26 208 0;
#X obj 25 81 t b b;
#X obj 101 97 pack;
#X floatatom 76 272 5 0 0 0 - - -;
#X obj 65 163 select 0;
#X msg 89 185 0 0;
#X obj 101 76 / 50;
#X obj 26 185 select 50;
#X obj 76 211 line~;
#X obj 76 231 env~;
#X obj 76 251 dbtorms;
#X obj 76 289 select 50;
#X obj 121 270 int;
#X obj 25 44 metro 8000;
#X obj 25 120 metro 122;
#X obj 25 24 inlet;
#X obj 147 205 line~;
#X obj 147 227 env~;
#X obj 147 248 dbtorms;
#X obj 147 291 select;
#X obj 147 270 t f f;
#X msg 147 185 0;
#X obj 148 50 outlet~;
#X obj 84 120 inlet;
#X obj 101 33 inlet;
#X obj 177 184 outlet;
#X obj 60 67 outlet;
#X obj 28 230 outlet;
#X obj 139 30 tabread4~ array1;
#X obj 192 93 select;
#X obj 192 71 t f f;
#X obj 139 69 env~;
#X obj 139 90 dbtorms;
#X floatatom 192 137 5 0 0 0 - - -;
#X obj 192 115 outlet;
#X obj 32 289 outlet;
#X obj 139 114 outlet;
#X connect 0 0 7 0;
#X connect 1 0 10 0;
#X connect 1 0 13 0;
#X connect 2 0 4 1;
#X connect 3 0 4 1;
#X connect 4 0 2 0;
#X connect 4 0 1 0;
#X connect 5 0 20 0;
#X connect 5 1 3 0;
#X connect 6 0 20 0;
#X connect 6 0 33 0;
#X connect 7 0 5 0;
#X connect 7 1 32 0;
#X connect 8 0 14 0;
#X connect 9 0 18 0;
#X connect 9 0 41 0;
#X connect 10 0 11 0;
#X connect 10 1 8 0;
#X connect 11 0 14 0;
#X connect 12 0 8 1;
#X connect 13 0 6 0;
#X connect 14 0 15 0;
#X connect 14 0 34 0;
#X connect 15 0 16 0;
#X connect 16 0 9 0;
#X connect 17 0 27 0;
#X connect 18 0 17 0;
#X connect 19 0 0 0;
#X connect 20 0 4 0;
#X connect 21 0 19 0;
#X connect 22 0 23 0;
#X connect 23 0 24 0;
#X connect 24 0 26 0;
#X connect 26 0 25 1;
#X connect 26 1 25 0;
#X connect 27 0 22 0;
#X connect 27 0 31 0;
#X connect 29 0 20 1;
#X connect 30 0 19 1;
#X connect 30 0 12 0;
#X connect 34 0 37 0;
#X connect 34 0 28 0;
#X connect 35 1 39 0;
#X connect 35 1 40 0;
#X connect 36 0 35 1;
#X connect 36 1 35 0;
#X connect 37 0 38 0;
#X connect 38 0 36 0;
#X connect 38 0 42 0;
#X restore 24 59 pd metro1;
#X obj 163 187 outlet;
#N canvas 203 72 470 245 (subpatch) 0;
#X obj 8 53 / 12;
#X obj 8 76 int;
#X obj 8 99 * 12;
#X obj 8 7 inlet;
#X obj 8 192 outlet;
#X obj 8 168 -;
#X obj 8 145 f;
#X floatatom 37 170 5 0 0 0 - - -;
#X obj 8 122 t b f;
#X obj 8 30 t f f;
#X obj 144 171 outlet;
#X obj 93 30 select 0 1 2 3 4 5 6 7 8 9 10 11;
#X msg 90 112 set C;
#X msg 110 87 set Db;
#X msg 169 87 set Eb;
#X msg 245 87 set Gb;
#X msg 301 87 set Ab;
#X msg 358 87 set Bb;
#X msg 378 112 set B;
#X msg 330 112 set A;
#X msg 233 112 set F;
#X msg 186 112 set E;
#X msg 138 112 set D;
#X msg 281 112 set G;
#X connect 0 0 1 0;
#X connect 1 0 2 0;
#X connect 2 0 8 0;
#X connect 3 0 9 0;
#X connect 5 0 7 0;
#X connect 5 0 4 0;
#X connect 5 0 11 0;
#X connect 6 0 5 0;
#X connect 8 0 6 0;
#X connect 8 1 5 1;
#X connect 9 0 0 0;
#X connect 9 1 6 1;
#X connect 11 0 12 0;
#X connect 11 1 13 0;
#X connect 11 2 22 0;
#X connect 11 3 14 0;
#X connect 11 4 21 0;
#X connect 11 5 20 0;
#X connect 11 6 15 0;
#X connect 11 7 23 0;
#X connect 11 8 16 0;
#X connect 11 9 19 0;
#X connect 11 10 17 0;
#X connect 11 11 18 0;
#X connect 12 0 10 0;
#X connect 13 0 10 0;
#X connect 14 0 10 0;
#X connect 15 0 10 0;
#X connect 16 0 10 0;
#X connect 17 0 10 0;
#X connect 18 0 10 0;
#X connect 19 0 10 0;
#X connect 20 0 10 0;
#X connect 21 0 10 0;
#X connect 22 0 10 0;
#X connect 23 0 10 0;
#X restore 179 123 pd;
#X floatatom 176 149 5 0 0 0 - - -;
#X symbolatom 222 149 2 0 0 0 - - -;
#X msg 118 74 origin / 40;
#X connect 3 0 9 0;
#X connect 4 0 9 2;
#X connect 5 0 9 1;
#X connect 6 0 8 0;
#X connect 7 0 0 0;
#X connect 8 0 7 0;
#X connect 8 0 11 0;
#X connect 9 0 7 1;
#X connect 9 1 2 0;
#X connect 9 2 6 0;
#X connect 9 4 7 2;
#X connect 9 5 7 1;
#X connect 9 6 1 0;
#X connect 9 6 7 1;
#X connect 11 0 12 0;
#X connect 11 1 13 0;
#X connect 11 1 10 0;
#X restore 184 285 pd instrument1;
#X obj 246 121 vsl 15 135 0 1 0 0 empty empty empty 0 -8 0 8 -262144
-1 -1 1306 1;
#N canvas 123 366 450 300 instrument2 0;
#X obj 19 14 inlet;
#X obj 61 14 inlet;
#X obj 102 14 inlet;
#X obj 19 130 outlet~;
#X obj 77 130 outlet;
#X obj 125 130 outlet;
#X obj 145 14 inlet;
#N canvas 152 346 317 274 note-selector 0;
#X obj 31 32 inlet;
#X msg 30 103 40;
#X msg 59 103 42;
#X msg 89 103 44;
#X floatatom -11 78 5 0 0 0 - - -;
#X obj 95 167 outlet;
#X msg 119 103 47;
#X msg 149 103 49;
#X msg 179 103 52;
#X msg 209 103 54;
#X msg 241 103 56;
#X obj 31 55 random 8 12;
#X obj 54 76 select 0 1 2 3 4 5 6 7 8;
#X obj 148 140 inlet;
#X obj 99 144 + 0;
#X obj 148 165 * 12;
#X connect 0 0 11 0;
#X connect 1 0 14 0;
#X connect 2 0 14 0;
#X connect 3 0 14 0;
#X connect 6 0 14 0;
#X connect 7 0 14 0;
#X connect 8 0 14 0;
#X connect 9 0 14 0;
#X connect 10 0 14 0;
#X connect 11 0 4 0;
#X connect 11 0 12 0;
#X connect 12 0 1 0;
#X connect 12 1 2 0;
#X connect 12 2 3 0;
#X connect 12 3 6 0;
#X connect 12 4 7 0;
#X connect 12 5 8 0;
#X connect 12 6 9 0;
#X connect 12 7 10 0;
#X connect 13 0 15 0;
#X connect 14 0 5 0;
#X connect 15 0 14 1;
#X restore 20 103 pd note-selector;
#X floatatom 57 83 5 0 0 0 - - -;
#N canvas 734 115 280 364 metro2 0;
#X obj 25 64 bng 15 250 50 0 empty empty empty 0 -6 0 8 -262144 -1
-1;
#X floatatom 26 166 5 0 0 0 - - -;
#X obj 48 141 + 1;
#X msg 66 96 0;
#X obj 25 141 int;
#X obj 25 100 t b f;
#X msg 26 208 0;
#X obj 25 81 t b b;
#X obj 101 97 pack;
#X floatatom 76 272 5 0 0 0 - - -;
#X obj 65 163 select 0;
#X msg 89 185 0 0;
#X obj 101 76 / 50;
#X obj 26 185 select 50;
#X obj 76 211 line~;
#X obj 76 231 env~;
#X obj 76 251 dbtorms;
#X obj 76 289 select 50;
#X obj 121 270 int;
#X obj 25 44 metro 8000;
#X obj 25 120 metro 122;
#X obj 25 24 inlet;
#X obj 147 205 line~;
#X obj 147 227 env~;
#X obj 147 248 dbtorms;
#X obj 147 291 select;
#X obj 147 270 t f f;
#X msg 147 185 0;
#X obj 148 50 outlet~;
#X obj 84 120 inlet;
#X obj 101 33 inlet;
#X obj 177 184 outlet;
#X obj 60 67 outlet;
#X obj 28 230 outlet;
#X obj 192 93 select;
#X obj 192 71 t f f;
#X obj 139 69 env~;
#X obj 139 90 dbtorms;
#X floatatom 192 137 5 0 0 0 - - -;
#X obj 192 115 outlet;
#X obj 32 289 outlet;
#X obj 139 114 outlet;
#X obj 139 29 tabread4~ array2;
#X connect 0 0 7 0;
#X connect 1 0 10 0;
#X connect 1 0 13 0;
#X connect 2 0 4 1;
#X connect 3 0 4 1;
#X connect 4 0 2 0;
#X connect 4 0 1 0;
#X connect 5 0 20 0;
#X connect 5 1 3 0;
#X connect 6 0 20 0;
#X connect 6 0 33 0;
#X connect 7 0 5 0;
#X connect 7 1 32 0;
#X connect 8 0 14 0;
#X connect 9 0 18 0;
#X connect 9 0 40 0;
#X connect 10 0 11 0;
#X connect 10 1 8 0;
#X connect 11 0 14 0;
#X connect 12 0 8 1;
#X connect 13 0 6 0;
#X connect 14 0 15 0;
#X connect 14 0 42 0;
#X connect 15 0 16 0;
#X connect 16 0 9 0;
#X connect 17 0 27 0;
#X connect 18 0 17 0;
#X connect 19 0 0 0;
#X connect 20 0 4 0;
#X connect 21 0 19 0;
#X connect 22 0 23 0;
#X connect 23 0 24 0;
#X connect 24 0 26 0;
#X connect 26 0 25 1;
#X connect 26 1 25 0;
#X connect 27 0 22 0;
#X connect 27 0 31 0;
#X connect 29 0 20 1;
#X connect 30 0 19 1;
#X connect 30 0 12 0;
#X connect 34 1 38 0;
#X connect 34 1 39 0;
#X connect 35 0 34 1;
#X connect 35 1 34 0;
#X connect 36 0 37 0;
#X connect 37 0 35 0;
#X connect 37 0 41 0;
#X connect 42 0 36 0;
#X connect 42 0 28 0;
#X restore 19 37 pd metro2;
#N canvas 9 27 389 325 synth2 0;
#X obj 7 88 osc~ 440;
#X obj 7 69 mtof;
#X floatatom 7 53 5 0 0 0 - - -;
#X obj 36 220 *~;
#X obj 69 88 osc~ 440;
#X obj 69 69 mtof;
#X floatatom 69 53 5 0 0 0 - - -;
#X obj 129 68 + 7;
#X obj 106 222 inlet;
#X obj 26 15 inlet;
#X obj 36 243 outlet~;
#X obj 95 111 vsl 15 50 0 1 0 1 empty empty empty 0 -8 0 8 -262144
-1 -1 1900 1;
#X obj 32 112 vsl 15 50 0 1 0 1 empty empty empty 0 -8 0 8 -262144
-1 -1 2800 1;
#X floatatom 28 169 5 0 0 0 - - -;
#X floatatom 88 172 5 0 0 0 - - -;
#X obj 158 87 osc~ 440;
#X obj 158 68 mtof;
#X floatatom 158 52 5 0 0 0 - - -;
#X obj 184 110 vsl 15 50 0 1 0 1 empty empty empty 0 -8 0 8 -262144
-1 -1 3600 1;
#X floatatom 181 171 5 0 0 0 - - -;
#X obj 218 67 + 12;
#X obj 252 86 osc~ 440;
#X obj 252 67 mtof;
#X floatatom 252 51 5 0 0 0 - - -;
#X obj 278 109 vsl 15 50 0 1 0 1 empty empty empty 0 -8 0 8 -262144
-1 -1 3900 1;
#X floatatom 273 169 5 0 0 0 - - -;
#X obj 312 66 + 24;
#X obj 167 219 inlet~;
#X obj 7 189 *~ 0.571;
#X obj 70 189 *~ 0.387;
#X obj 159 188 *~ 0.734;
#X obj 253 187 *~ 0.795;
#X connect 0 0 28 0;
#X connect 1 0 0 0;
#X connect 2 0 1 0;
#X connect 2 0 7 0;
#X connect 2 0 20 0;
#X connect 2 0 26 0;
#X connect 3 0 10 0;
#X connect 4 0 29 0;
#X connect 5 0 4 0;
#X connect 6 0 5 0;
#X connect 7 0 6 0;
#X connect 8 0 3 1;
#X connect 9 0 2 0;
#X connect 11 0 14 0;
#X connect 12 0 13 0;
#X connect 13 0 28 1;
#X connect 14 0 29 1;
#X connect 15 0 30 0;
#X connect 16 0 15 0;
#X connect 17 0 16 0;
#X connect 18 0 19 0;
#X connect 19 0 30 1;
#X connect 20 0 17 0;
#X connect 21 0 31 0;
#X connect 22 0 21 0;
#X connect 23 0 22 0;
#X connect 24 0 25 0;
#X connect 25 0 31 1;
#X connect 26 0 23 0;
#X connect 27 0 3 1;
#X connect 28 0 3 0;
#X connect 29 0 3 0;
#X connect 30 0 3 0;
#X connect 31 0 3 0;
#X restore 19 61 pd synth2;
#N canvas 203 72 470 245 (subpatch) 0;
#X obj 8 53 / 12;
#X obj 8 76 int;
#X obj 8 99 * 12;
#X obj 8 7 inlet;
#X obj 8 192 outlet;
#X obj 8 168 -;
#X obj 8 145 f;
#X floatatom 37 170 5 0 0 0 - - -;
#X obj 8 122 t b f;
#X obj 8 30 t f f;
#X obj 144 171 outlet;
#X obj 93 30 select 0 1 2 3 4 5 6 7 8 9 10 11;
#X msg 90 112 set C;
#X msg 110 87 set Db;
#X msg 169 87 set Eb;
#X msg 245 87 set Gb;
#X msg 301 87 set Ab;
#X msg 358 87 set Bb;
#X msg 378 112 set B;
#X msg 330 112 set A;
#X msg 233 112 set F;
#X msg 186 112 set E;
#X msg 138 112 set D;
#X msg 281 112 set G;
#X connect 0 0 1 0;
#X connect 1 0 2 0;
#X connect 2 0 8 0;
#X connect 3 0 9 0;
#X connect 5 0 7 0;
#X connect 5 0 4 0;
#X connect 5 0 11 0;
#X connect 6 0 5 0;
#X connect 8 0 6 0;
#X connect 8 1 5 1;
#X connect 9 0 0 0;
#X connect 9 1 6 1;
#X connect 11 0 12 0;
#X connect 11 1 13 0;
#X connect 11 2 22 0;
#X connect 11 3 14 0;
#X connect 11 4 21 0;
#X connect 11 5 20 0;
#X connect 11 6 15 0;
#X connect 11 7 23 0;
#X connect 11 8 16 0;
#X connect 11 9 19 0;
#X connect 11 10 17 0;
#X connect 11 11 18 0;
#X connect 12 0 10 0;
#X connect 13 0 10 0;
#X connect 14 0 10 0;
#X connect 15 0 10 0;
#X connect 16 0 10 0;
#X connect 17 0 10 0;
#X connect 18 0 10 0;
#X connect 19 0 10 0;
#X connect 20 0 10 0;
#X connect 21 0 10 0;
#X connect 22 0 10 0;
#X connect 23 0 10 0;
#X restore 166 82 pd;
#X floatatom 163 108 5 0 0 0 - - -;
#X symbolatom 209 108 2 0 0 0 - - -;
#X obj 174 130 outlet;
#X connect 0 0 9 0;
#X connect 1 0 9 2;
#X connect 2 0 9 1;
#X connect 6 0 7 1;
#X connect 7 0 8 0;
#X connect 8 0 10 0;
#X connect 8 0 11 0;
#X connect 9 0 10 1;
#X connect 9 1 5 0;
#X connect 9 2 7 0;
#X connect 9 4 10 2;
#X connect 9 5 10 1;
#X connect 9 6 4 0;
#X connect 9 6 10 1;
#X connect 10 0 3 0;
#X connect 11 0 12 0;
#X connect 11 1 13 0;
#X connect 11 1 14 0;
#X restore 605 285 pd instrument2;
#X obj 522 263 *~ 0.9;
#X obj 61 262 *~ 0.9;
#X obj 650 125 vsl 15 135 0 1 0 0 empty empty empty 0 -8 0 8 -262144
-1 -1 1039 1;
#X obj 480 285 s~ mixl2;
#X obj 60 285 s~ mixl1;
#X obj 122 285 s~ mixr1;
#X obj 75 545 r~ mixl1;
#X obj 144 547 r~ mixr1;
#X obj 85 565 r~ mixl2;
#X obj 149 566 r~ mixr2;
#N canvas 227 222 400 368 instrument3 0;
#X obj 23 20 inlet;
#X obj 143 20 inlet;
#X obj 103 20 inlet;
#X obj 63 20 inlet;
#X obj 26 170 outlet~;
#X obj 82 170 outlet;
#X obj 129 170 outlet;
#N canvas 152 346 317 274 note-selector 0;
#X obj 31 32 inlet;
#X msg 30 103 40;
#X msg 59 103 42;
#X msg 89 103 44;
#X floatatom -11 78 5 0 0 0 - - -;
#X obj 95 167 outlet;
#X msg 119 103 47;
#X msg 149 103 49;
#X msg 179 103 52;
#X msg 209 103 54;
#X msg 241 103 56;
#X obj 31 55 random 8 12;
#X obj 54 76 select 0 1 2 3 4 5 6 7 8;
#X obj 148 140 inlet;
#X obj 99 144 + 0;
#X obj 148 165 * 12;
#X connect 0 0 11 0;
#X connect 1 0 14 0;
#X connect 2 0 14 0;
#X connect 3 0 14 0;
#X connect 6 0 14 0;
#X connect 7 0 14 0;
#X connect 8 0 14 0;
#X connect 9 0 14 0;
#X connect 10 0 14 0;
#X connect 11 0 4 0;
#X connect 11 0 12 0;
#X connect 12 0 1 0;
#X connect 12 1 2 0;
#X connect 12 2 3 0;
#X connect 12 3 6 0;
#X connect 12 4 7 0;
#X connect 12 5 8 0;
#X connect 12 6 9 0;
#X connect 12 7 10 0;
#X connect 13 0 15 0;
#X connect 14 0 5 0;
#X connect 15 0 14 1;
#X restore 27 138 pd note-selector;
#X floatatom 64 118 5 0 0 0 - - -;
#N canvas 9 27 401 337 synth5 0;
#X obj 7 135 osc~ 440;
#X obj 7 116 mtof;
#X floatatom 7 100 5 0 0 0 - - -;
#X obj 36 267 *~;
#X obj 69 135 osc~ 440;
#X obj 69 116 mtof;
#X floatatom 69 100 5 0 0 0 - - -;
#X obj 129 115 + 7;
#X obj 106 269 inlet;
#X obj 8 5 inlet;
#X obj 36 290 outlet~;
#X obj 95 158 vsl 15 50 0 1 0 1 empty empty empty 0 -8 0 8 -262144
-1 -1 1900 1;
#X obj 32 159 vsl 15 50 0 1 0 1 empty empty empty 0 -8 0 8 -262144
-1 -1 2800 1;
#X floatatom 28 216 5 0 0 0 - - -;
#X floatatom 88 219 5 0 0 0 - - -;
#X obj 158 134 osc~ 440;
#X obj 158 115 mtof;
#X floatatom 158 99 5 0 0 0 - - -;
#X obj 184 157 vsl 15 50 0 1 0 1 empty empty empty 0 -8 0 8 -262144
-1 -1 3600 1;
#X floatatom 181 218 5 0 0 0 - - -;
#X obj 218 114 + 12;
#X obj 252 133 osc~ 440;
#X obj 252 114 mtof;
#X floatatom 252 98 5 0 0 0 - - -;
#X obj 278 156 vsl 15 50 0 1 0 1 empty empty empty 0 -8 0 8 -262144
-1 -1 3900 1;
#X floatatom 273 216 5 0 0 0 - - -;
#X obj 312 113 + 24;
#X obj 167 266 inlet~;
#X obj 7 236 *~ 0.571;
#X obj 70 236 *~ 0.387;
#X obj 159 235 *~ 0.734;
#X obj 253 234 *~ 0.795;
#X obj 10 51 f;
#X obj 8 26 t b f;
#X obj 49 25 + 5;
#X obj 49 51 f;
#X obj 116 28 metro 100;
#X obj 116 8 loadbang;
#X obj 116 50 tgl 15 0 empty empty empty 0 -6 0 8 -262144 -1 -1 0 1
;
#X obj 180 7 bng 15 250 50 0 empty empty empty 0 -6 0 8 -262144 -1
-1;
#X obj 116 69 select 0 1;
#X floatatom 225 48 5 0 0 0 - - -;
#X obj 269 6 inlet~;
#X obj 269 27 env~;
#X obj 269 47 dbtorms;
#X obj 219 6 * -210;
#X obj 220 25 + 210;
#X obj 23 80 outlet;
#X connect 0 0 28 0;
#X connect 1 0 0 0;
#X connect 2 0 1 0;
#X connect 2 0 7 0;
#X connect 2 0 20 0;
#X connect 2 0 26 0;
#X connect 3 0 10 0;
#X connect 4 0 29 0;
#X connect 5 0 4 0;
#X connect 6 0 5 0;
#X connect 7 0 6 0;
#X connect 8 0 3 1;
#X connect 9 0 33 0;
#X connect 11 0 14 0;
#X connect 12 0 13 0;
#X connect 13 0 28 1;
#X connect 14 0 29 1;
#X connect 15 0 30 0;
#X connect 16 0 15 0;
#X connect 17 0 16 0;
#X connect 18 0 19 0;
#X connect 19 0 30 1;
#X connect 20 0 17 0;
#X connect 21 0 31 0;
#X connect 22 0 21 0;
#X connect 23 0 22 0;
#X connect 24 0 25 0;
#X connect 25 0 31 1;
#X connect 26 0 23 0;
#X connect 27 0 3 1;
#X connect 28 0 3 0;
#X connect 29 0 3 0;
#X connect 30 0 3 0;
#X connect 31 0 3 0;
#X connect 32 0 2 0;
#X connect 32 0 47 0;
#X connect 33 0 32 0;
#X connect 33 1 32 1;
#X connect 33 1 34 0;
#X connect 34 0 35 1;
#X connect 35 0 2 0;
#X connect 35 0 47 0;
#X connect 36 0 38 0;
#X connect 37 0 36 0;
#X connect 38 0 40 0;
#X connect 39 0 36 0;
#X connect 40 0 32 0;
#X connect 40 1 35 0;
#X connect 41 0 36 1;
#X connect 42 0 43 0;
#X connect 43 0 44 0;
#X connect 44 0 45 0;
#X connect 45 0 46 0;
#X connect 46 0 41 0;
#X restore 26 96 pd synth5;
#N canvas 734 115 288 372 memetro5 0;
#X obj 25 64 bng 15 250 50 0 empty empty empty 0 -6 0 8 -262144 -1
-1;
#X floatatom 26 166 5 0 0 0 - - -;
#X obj 48 141 + 1;
#X msg 66 96 0;
#X obj 25 141 int;
#X obj 25 100 t b f;
#X msg 26 208 0;
#X obj 25 81 t b b;
#X obj 101 97 pack;
#X floatatom 76 272 5 0 0 0 - - -;
#X obj 65 163 select 0;
#X msg 89 185 0 0;
#X obj 101 76 / 50;
#X obj 26 185 select 50;
#X obj 76 211 line~;
#X obj 76 231 env~;
#X obj 76 251 dbtorms;
#X obj 76 289 select 50;
#X obj 121 270 int;
#X obj 25 44 metro 8000;
#X obj 25 120 metro 122;
#X obj 25 24 inlet;
#X obj 147 205 line~;
#X obj 147 227 env~;
#X obj 147 248 dbtorms;
#X obj 147 291 select;
#X obj 147 270 t f f;
#X msg 147 185 0;
#X obj 148 50 outlet~;
#X obj 84 120 inlet;
#X obj 101 33 inlet;
#X obj 177 184 outlet;
#X obj 60 67 outlet;
#X obj 28 230 outlet;
#X obj 192 93 select;
#X obj 192 71 t f f;
#X obj 139 69 env~;
#X obj 139 90 dbtorms;
#X floatatom 192 137 5 0 0 0 - - -;
#X obj 192 115 outlet;
#X obj 32 289 outlet;
#X obj 139 114 outlet;
#X obj 139 29 tabread4~ array2;
#X connect 0 0 7 0;
#X connect 1 0 10 0;
#X connect 1 0 13 0;
#X connect 2 0 4 1;
#X connect 3 0 4 1;
#X connect 4 0 2 0;
#X connect 4 0 1 0;
#X connect 5 0 20 0;
#X connect 5 1 3 0;
#X connect 6 0 20 0;
#X connect 6 0 33 0;
#X connect 7 0 5 0;
#X connect 7 1 32 0;
#X connect 8 0 14 0;
#X connect 9 0 18 0;
#X connect 9 0 40 0;
#X connect 10 0 11 0;
#X connect 10 1 8 0;
#X connect 11 0 14 0;
#X connect 12 0 8 1;
#X connect 13 0 6 0;
#X connect 14 0 15 0;
#X connect 14 0 42 0;
#X connect 15 0 16 0;
#X connect 16 0 9 0;
#X connect 17 0 27 0;
#X connect 18 0 17 0;
#X connect 19 0 0 0;
#X connect 20 0 4 0;
#X connect 21 0 19 0;
#X connect 22 0 23 0;
#X connect 23 0 24 0;
#X connect 24 0 26 0;
#X connect 26 0 25 1;
#X connect 26 1 25 0;
#X connect 27 0 22 0;
#X connect 27 0 31 0;
#X connect 29 0 20 1;
#X connect 30 0 19 1;
#X connect 30 0 12 0;
#X connect 34 1 38 0;
#X connect 34 1 39 0;
#X connect 35 0 34 1;
#X connect 35 1 34 0;
#X connect 36 0 37 0;
#X connect 37 0 35 0;
#X connect 37 0 41 0;
#X connect 42 0 36 0;
#X connect 42 0 28 0;
#X restore 25 69 pd memetro5;
#N canvas 203 72 470 245 (subpatch) 0;
#X obj 8 53 / 12;
#X obj 8 76 int;
#X obj 8 99 * 12;
#X obj 8 7 inlet;
#X obj 8 192 outlet;
#X obj 8 168 -;
#X obj 8 145 f;
#X floatatom 37 170 5 0 0 0 - - -;
#X obj 8 122 t b f;
#X obj 8 30 t f f;
#X obj 144 171 outlet;
#X obj 93 30 select 0 1 2 3 4 5 6 7 8 9 10 11;
#X msg 90 112 set C;
#X msg 110 87 set Db;
#X msg 169 87 set Eb;
#X msg 245 87 set Gb;
#X msg 301 87 set Ab;
#X msg 358 87 set Bb;
#X msg 378 112 set B;
#X msg 330 112 set A;
#X msg 233 112 set F;
#X msg 186 112 set E;
#X msg 138 112 set D;
#X msg 281 112 set G;
#X connect 0 0 1 0;
#X connect 1 0 2 0;
#X connect 2 0 8 0;
#X connect 3 0 9 0;
#X connect 5 0 7 0;
#X connect 5 0 4 0;
#X connect 5 0 11 0;
#X connect 6 0 5 0;
#X connect 8 0 6 0;
#X connect 8 1 5 1;
#X connect 9 0 0 0;
#X connect 9 1 6 1;
#X connect 11 0 12 0;
#X connect 11 1 13 0;
#X connect 11 2 22 0;
#X connect 11 3 14 0;
#X connect 11 4 21 0;
#X connect 11 5 20 0;
#X connect 11 6 15 0;
#X connect 11 7 23 0;
#X connect 11 8 16 0;
#X connect 11 9 19 0;
#X connect 11 10 17 0;
#X connect 11 11 18 0;
#X connect 12 0 10 0;
#X connect 13 0 10 0;
#X connect 14 0 10 0;
#X connect 15 0 10 0;
#X connect 16 0 10 0;
#X connect 17 0 10 0;
#X connect 18 0 10 0;
#X connect 19 0 10 0;
#X connect 20 0 10 0;
#X connect 21 0 10 0;
#X connect 22 0 10 0;
#X connect 23 0 10 0;
#X restore 170 121 pd;
#X floatatom 167 147 5 0 0 0 - - -;
#X symbolatom 213 147 2 0 0 0 - - -;
#X obj 178 169 outlet;
#X connect 0 0 10 0;
#X connect 1 0 7 1;
#X connect 2 0 10 1;
#X connect 3 0 10 2;
#X connect 7 0 8 0;
#X connect 8 0 9 0;
#X connect 9 0 11 0;
#X connect 9 1 4 0;
#X connect 10 0 9 1;
#X connect 10 1 6 0;
#X connect 10 2 7 0;
#X connect 10 4 9 2;
#X connect 10 4 9 3;
#X connect 10 5 9 1;
#X connect 10 6 5 0;
#X connect 10 6 9 1;
#X connect 11 0 12 0;
#X connect 11 1 13 0;
#X connect 11 1 14 0;
#X restore 203 475 pd instrument3;
#X obj 143 653 *~ 0;
#X obj 96 651 *~ 0;
#X obj 543 285 s~ mixr2;
#X obj 235 313 vsl 15 135 0 1 0 0 empty empty empty 0 -8 0 8 -262144
-1 -1 734 1;
#X obj 77 475 s~ mixl3;
#X obj 140 475 s~ mixr3;
#X obj 92 586 r~ mixl3;
#X obj 155 586 r~ mixr3;
#X symbolatom 292 286 2 0 0 0 - - -;
#X symbolatom 712 297 2 0 0 0 - - -;
#X symbolatom 310 485 2 0 0 0 - - -;
#X obj 655 509 vsl 15 135 0 1 0 0 empty empty empty 0 -8 0 8 -262144
-1 -1 1213 1;
#X obj 457 665 s~ mixl4;
#X obj 518 665 s~ mixr4;
#X obj 99 607 r~ mixl4;
#X obj 162 607 r~ mixr4;
#X obj 167 628 r~ mixr5;
#X obj 104 627 r~ mixl5;
#N canvas 0 22 283 348 instrument5 0;
#X obj 8 12 inlet;
#X obj 47 12 inlet;
#X obj 127 12 inlet;
#X obj 87 12 inlet;
#X obj 7 145 outlet~;
#X obj 62 145 outlet;
#X obj 109 145 outlet;
#N canvas 152 346 325 282 note-selector 0;
#X obj 31 32 inlet;
#X msg 30 103 40;
#X msg 59 103 42;
#X msg 89 103 44;
#X floatatom -11 78 5 0 0 0 - - -;
#X obj 95 167 outlet;
#X msg 119 103 47;
#X msg 149 103 49;
#X msg 179 103 52;
#X msg 209 103 54;
#X msg 241 103 56;
#X obj 31 55 random 8 12;
#X obj 54 76 select 0 1 2 3 4 5 6 7 8;
#X obj 139 132 inlet;
#X obj 139 172 * 12;
#X obj 139 152 f 1;
#X obj 99 144 + 12;
#X connect 0 0 11 0;
#X connect 1 0 16 0;
#X connect 2 0 16 0;
#X connect 3 0 16 0;
#X connect 6 0 16 0;
#X connect 7 0 16 0;
#X connect 8 0 16 0;
#X connect 9 0 16 0;
#X connect 10 0 16 0;
#X connect 11 0 4 0;
#X connect 11 0 12 0;
#X connect 12 0 1 0;
#X connect 12 1 2 0;
#X connect 12 2 3 0;
#X connect 12 3 6 0;
#X connect 12 4 7 0;
#X connect 12 5 8 0;
#X connect 12 6 9 0;
#X connect 12 7 10 0;
#X connect 13 0 15 0;
#X connect 14 0 16 1;
#X connect 15 0 14 0;
#X connect 16 0 5 0;
#X restore 20 113 pd note-selector;
#X floatatom 47 93 5 0 0 0 - - -;
#N canvas 734 115 296 380 metro3 0;
#X obj 25 64 bng 15 250 50 0 empty empty empty 0 -6 0 8 -262144 -1
-1;
#X floatatom 26 166 5 0 0 0 - - -;
#X obj 48 141 + 1;
#X msg 66 96 0;
#X obj 25 141 int;
#X obj 25 100 t b f;
#X msg 26 208 0;
#X obj 25 81 t b b;
#X obj 101 97 pack;
#X floatatom 76 272 5 0 0 0 - - -;
#X obj 65 163 select 0;
#X msg 89 185 0 0;
#X obj 101 76 / 50;
#X obj 26 185 select 50;
#X obj 76 211 line~;
#X obj 76 231 env~;
#X obj 76 251 dbtorms;
#X obj 76 289 select 50;
#X obj 121 270 int;
#X obj 25 24 inlet;
#X msg 76 309 0;
#X obj 148 50 outlet~;
#X obj 84 120 inlet;
#X obj 101 33 inlet;
#X obj 106 309 outlet;
#X obj 60 67 outlet;
#X obj 28 230 outlet;
#X obj 192 93 select;
#X obj 192 71 t f f;
#X obj 139 69 env~;
#X obj 139 90 dbtorms;
#X floatatom 192 137 5 0 0 0 - - -;
#X obj 192 115 outlet;
#X obj 32 289 outlet;
#X obj 139 114 outlet;
#X obj 139 29 tabread4~ array3;
#X obj 25 44 metro 7171;
#X obj 25 120 metro 48;
#X connect 0 0 7 0;
#X connect 1 0 10 0;
#X connect 1 0 13 0;
#X connect 2 0 4 1;
#X connect 3 0 4 1;
#X connect 4 0 2 0;
#X connect 4 0 1 0;
#X connect 5 0 37 0;
#X connect 5 1 3 0;
#X connect 6 0 26 0;
#X connect 6 0 37 0;
#X connect 7 0 5 0;
#X connect 7 1 25 0;
#X connect 8 0 14 0;
#X connect 9 0 18 0;
#X connect 9 0 33 0;
#X connect 10 0 11 0;
#X connect 10 1 8 0;
#X connect 11 0 14 0;
#X connect 12 0 8 1;
#X connect 13 0 6 0;
#X connect 14 0 15 0;
#X connect 14 0 35 0;
#X connect 15 0 16 0;
#X connect 16 0 9 0;
#X connect 17 0 20 0;
#X connect 18 0 17 0;
#X connect 19 0 36 0;
#X connect 20 0 24 0;
#X connect 22 0 37 1;
#X connect 23 0 12 0;
#X connect 23 0 36 1;
#X connect 27 1 31 0;
#X connect 27 1 32 0;
#X connect 28 0 27 1;
#X connect 28 1 27 0;
#X connect 29 0 30 0;
#X connect 30 0 28 0;
#X connect 30 0 34 0;
#X connect 35 0 29 0;
#X connect 35 0 21 0;
#X connect 36 0 0 0;
#X connect 37 0 4 0;
#X restore 9 47 pd metro3;
#N canvas 9 27 522 372 synth3 0;
#X obj 7 88 osc~ 440;
#X obj 7 69 mtof;
#X floatatom 7 53 5 0 0 0 - - -;
#X obj 37 217 *~;
#X obj 69 88 osc~ 440;
#X obj 69 69 mtof;
#X floatatom 69 53 5 0 0 0 - - -;
#X obj 129 68 + 7;
#X obj 107 219 inlet;
#X obj 26 15 inlet;
#X obj 37 240 outlet~;
#X obj 95 111 vsl 15 50 0 1 0 1 empty empty empty 0 -8 0 8 -262144
-1 -1 0 1;
#X obj 32 112 vsl 15 50 0 1 0 1 empty empty empty 0 -8 0 8 -262144
-1 -1 1200 1;
#X floatatom 29 170 5 0 0 0 - - -;
#X floatatom 96 170 5 0 0 0 - - -;
#X obj 158 87 osc~ 440;
#X obj 158 68 mtof;
#X floatatom 158 52 5 0 0 0 - - -;
#X obj 184 110 vsl 15 50 0 1 0 1 empty empty empty 0 -8 0 8 -262144
-1 -1 0 1;
#X floatatom 183 168 5 0 0 0 - - -;
#X obj 218 67 + 12;
#X obj 252 86 osc~ 440;
#X obj 252 67 mtof;
#X floatatom 252 51 5 0 0 0 - - -;
#X obj 278 109 vsl 15 50 0 1 0 1 empty empty empty 0 -8 0 8 -262144
-1 -1 3800 1;
#X floatatom 275 165 5 0 0 0 - - -;
#X obj 312 66 + 24;
#X obj 168 216 inlet~;
#X obj 7 187 *~ 0.244;
#X obj 71 186 *~ 0;
#X obj 160 185 *~ 0;
#X obj 254 184 *~ 0.775;
#X connect 0 0 28 0;
#X connect 1 0 0 0;
#X connect 2 0 1 0;
#X connect 2 0 7 0;
#X connect 2 0 20 0;
#X connect 2 0 26 0;
#X connect 3 0 10 0;
#X connect 4 0 29 0;
#X connect 5 0 4 0;
#X connect 6 0 5 0;
#X connect 7 0 6 0;
#X connect 8 0 3 1;
#X connect 9 0 2 0;
#X connect 11 0 14 0;
#X connect 12 0 13 0;
#X connect 13 0 28 1;
#X connect 14 0 29 1;
#X connect 15 0 30 0;
#X connect 16 0 15 0;
#X connect 17 0 16 0;
#X connect 18 0 19 0;
#X connect 19 0 30 1;
#X connect 20 0 17 0;
#X connect 21 0 31 0;
#X connect 22 0 21 0;
#X connect 23 0 22 0;
#X connect 24 0 25 0;
#X connect 25 0 31 1;
#X connect 26 0 23 0;
#X connect 27 0 3 1;
#X connect 28 0 3 0;
#X connect 29 0 3 0;
#X connect 30 0 3 0;
#X connect 31 0 3 0;
#X restore 8 70 pd synth3;
#N canvas 203 72 470 245 (subpatch) 0;
#X obj 8 53 / 12;
#X obj 8 76 int;
#X obj 8 99 * 12;
#X obj 8 7 inlet;
#X obj 8 192 outlet;
#X obj 8 168 -;
#X obj 8 145 f;
#X floatatom 37 170 5 0 0 0 - - -;
#X obj 8 122 t b f;
#X obj 8 30 t f f;
#X obj 144 171 outlet;
#X obj 93 30 select 0 1 2 3 4 5 6 7 8 9 10 11;
#X msg 90 112 set C;
#X msg 110 87 set Db;
#X msg 169 87 set Eb;
#X msg 245 87 set Gb;
#X msg 301 87 set Ab;
#X msg 358 87 set Bb;
#X msg 378 112 set B;
#X msg 330 112 set A;
#X msg 233 112 set F;
#X msg 186 112 set E;
#X msg 138 112 set D;
#X msg 281 112 set G;
#X connect 0 0 1 0;
#X connect 1 0 2 0;
#X connect 2 0 8 0;
#X connect 3 0 9 0;
#X connect 5 0 7 0;
#X connect 5 0 4 0;
#X connect 5 0 11 0;
#X connect 6 0 5 0;
#X connect 8 0 6 0;
#X connect 8 1 5 1;
#X connect 9 0 0 0;
#X connect 9 1 6 1;
#X connect 11 0 12 0;
#X connect 11 1 13 0;
#X connect 11 2 22 0;
#X connect 11 3 14 0;
#X connect 11 4 21 0;
#X connect 11 5 20 0;
#X connect 11 6 15 0;
#X connect 11 7 23 0;
#X connect 11 8 16 0;
#X connect 11 9 19 0;
#X connect 11 10 17 0;
#X connect 11 11 18 0;
#X connect 12 0 10 0;
#X connect 13 0 10 0;
#X connect 14 0 10 0;
#X connect 15 0 10 0;
#X connect 16 0 10 0;
#X connect 17 0 10 0;
#X connect 18 0 10 0;
#X connect 19 0 10 0;
#X connect 20 0 10 0;
#X connect 21 0 10 0;
#X connect 22 0 10 0;
#X connect 23 0 10 0;
#X restore 150 97 pd;
#X floatatom 147 123 5 0 0 0 - - -;
#X symbolatom 193 123 2 0 0 0 - - -;
#X obj 158 145 outlet;
#X connect 0 0 9 0;
#X connect 1 0 9 2;
#X connect 2 0 7 1;
#X connect 3 0 9 1;
#X connect 7 0 8 0;
#X connect 8 0 10 0;
#X connect 8 0 11 0;
#X connect 9 0 10 1;
#X connect 9 1 6 0;
#X connect 9 2 7 0;
#X connect 9 3 10 1;
#X connect 9 5 10 2;
#X connect 9 6 5 0;
#X connect 9 6 10 1;
#X connect 10 0 4 0;
#X connect 11 0 12 0;
#X connect 11 1 13 0;
#X connect 11 1 14 0;
#X restore 589 475 pd instrument5;
#X obj 656 315 vsl 15 135 0 1 0 0 empty empty empty 0 -8 0 8 -262144
-1 -1 2939 1;
#X symbolatom 692 486 2 0 0 0 - - -;
#X obj 459 472 s~ mixl5;
#X obj 522 472 s~ mixr5;
#X floatatom 735 479 5 0 0 0 - - -;
#X text 478 310 Bell;
#X text 515 504 Water;
#X text 74 -17 jroller.pd by Sam Neurohack. Based on Nate Bliton Aleatoric
Tone Generator and Pascale Gustin communication patch.;
#X obj 786 478 r hgam07;
#X text 59 172 Levels;
#X text 62 185 R;
#X text 84 184 L;
#X obj 355 505 r hgam07;
#X obj 729 283 r hgam07;
#X connect 17 0 14 0;
#X connect 19 0 97 1;
#X connect 19 0 98 1;
#X connect 21 0 83 2;
#X connect 22 0 83 1;
#X connect 23 0 21 0;
#X connect 24 0 22 0;
#X connect 27 0 85 2;
#X connect 28 0 85 1;
#X connect 29 0 27 0;
#X connect 30 0 28 0;
#X connect 34 0 115 2;
#X connect 35 0 115 1;
#X connect 36 0 34 0;
#X connect 37 0 35 0;
#X connect 39 0 87 1;
#X connect 40 0 86 1;
#X connect 41 0 45 1;
#X connect 42 0 47 1;
#X connect 43 0 46 1;
#X connect 44 0 91 0;
#X connect 45 0 89 0;
#X connect 46 0 118 0;
#X connect 47 0 119 0;
#X connect 48 0 44 1;
#X connect 49 0 59 0;
#X connect 49 0 60 0;
#X connect 51 0 58 1;
#X connect 52 0 58 2;
#X connect 53 0 51 0;
#X connect 54 0 52 0;
#X connect 56 0 60 1;
#X connect 57 0 59 1;
#X connect 58 1 55 0;
#X connect 58 4 49 0;
#X connect 58 6 108 0;
#X connect 59 0 109 0;
#X connect 60 0 110 0;
#X connect 62 0 96 2;
#X connect 63 0 96 1;
#X connect 64 0 62 0;
#X connect 65 0 63 0;
#X connect 68 0 71 1;
#X connect 69 0 70 1;
#X connect 70 0 101 0;
#X connect 71 0 102 0;
#X connect 72 0 96 0;
#X connect 73 0 85 0;
#X connect 74 0 83 0;
#X connect 75 0 58 0;
#X connect 76 0 115 0;
#X connect 81 0 80 1;
#X connect 82 0 80 0;
#X connect 83 0 44 0;
#X connect 83 0 87 0;
#X connect 83 1 84 0;
#X connect 83 2 25 0;
#X connect 83 3 105 0;
#X connect 85 0 45 0;
#X connect 85 0 86 0;
#X connect 85 1 88 0;
#X connect 85 2 31 0;
#X connect 85 3 106 0;
#X connect 86 0 99 0;
#X connect 87 0 90 0;
#X connect 92 0 98 0;
#X connect 93 0 97 0;
#X connect 94 0 98 0;
#X connect 95 0 97 0;
#X connect 96 0 70 0;
#X connect 96 0 71 0;
#X connect 96 1 100 0;
#X connect 96 2 66 0;
#X connect 96 3 107 0;
#X connect 97 0 18 1;
#X connect 98 0 18 0;
#X connect 103 0 98 0;
#X connect 104 0 97 0;
#X connect 111 0 98 0;
#X connect 112 0 97 0;
#X connect 113 0 97 0;
#X connect 114 0 98 0;
#X connect 115 0 46 0;
#X connect 115 0 47 0;
#X connect 115 1 116 0;
#X connect 115 2 38 0;
#X connect 115 3 117 0;
#X connect 120 0 115 3;
#X connect 124 0 120 0;
#X connect 128 0 96 3;
#X connect 128 0 67 0;
#X connect 129 0 85 3;
#X connect 129 0 32 0;
