#N canvas 135 113 1157 523 10;
#X obj 159 282 list split 1;
#X obj 39 274 list split 1;
#X obj 39 375 pack s f;
#X obj 52 251 list;
#X obj 172 261 list;
#X msg 73 225 list cnt sig att med dlt tht lap hap lbt hbt lgm hgm
;
#X msg 74 175 list \$1 \$2 \$3 \$4 \$5 \$6 \$7 \$8 \$9 \$10 \$11 \$12
;
#X obj 74 150 moocow/bytes2any 128 0;
#X obj 144 98 unpack 0 0 0 0 0;
#X obj 74 70 mrpeach/tcpreceive 13856;
#X obj 74 198 t a b;
#X obj 159 308 t b b f;
#X obj 40 428 outlet;
#X obj 39 400 list trim;
#X obj -35 183 s ma_list;
#X obj 136 127 nbx 3 14 -1e+37 1e+37 0 0 empty empty empty 0 -8 0 10
-262144 -258113 -1 127 256;
#X obj 174 127 nbx 2 14 -1e+37 1e+37 0 0 empty empty empty 0 -8 0 10
-262144 -258113 -1 0 256;
#X obj 204 127 nbx 2 14 -1e+37 1e+37 0 0 empty empty empty 0 -8 0 10
-262144 -258113 -1 0 256;
#X obj 234 127 nbx 2 14 -1e+37 1e+37 0 0 empty empty empty 0 -8 0 10
-262144 -258113 -1 1 256;
#X obj 267 127 nbx 5 14 -1e+37 1e+37 0 0 empty empty empty 0 -8 0 10
-262144 -258113 -1 58238 256;
#X obj 325 127 nbx 2 14 -1e+37 1e+37 0 0 empty empty empty 0 -8 0 10
-262144 -258113 -1 1 256;
#X obj 536 410 mrpeach/unpackOSC;
#X obj 536 434 print unpackOSC;
#X text 644 409 <- pour OSC \, présent -> pas OSC...;
#X text 662 220 unpackOSC: Bad message name string: (32 0 51 50 76.9577
13.2874 4.7055 8.881 6.68 2.1097 0.83475 0.8082 8 -2 ) Dropping entire
message. unpackOSC: packet size (158) not a multiple of 4 bytes: dropping
packet unpackOSC: packet size (154) not a multiple of 4 bytes: dropping
packet;
#X connect 0 0 11 0;
#X connect 0 1 4 1;
#X connect 1 0 2 0;
#X connect 1 1 3 1;
#X connect 2 0 13 0;
#X connect 3 0 1 0;
#X connect 4 0 0 0;
#X connect 5 0 3 1;
#X connect 6 0 10 0;
#X connect 7 0 6 0;
#X connect 7 0 14 0;
#X connect 8 0 15 0;
#X connect 8 1 16 0;
#X connect 8 2 17 0;
#X connect 8 3 18 0;
#X connect 8 4 19 0;
#X connect 9 0 7 0;
#X connect 9 1 8 0;
#X connect 9 2 20 0;
#X connect 10 0 0 0;
#X connect 10 1 5 0;
#X connect 11 0 4 0;
#X connect 11 1 3 0;
#X connect 11 2 2 1;
#X connect 13 0 12 0;
#X connect 21 0 22 0;
#X coords 0 -1 1 1 770 30 2 100 117;
