#N canvas 356 101 450 300 10;
#X obj 190 147 max;
#X obj 206 122 f;
#X obj 140 124 f;
#X obj 101 146 min;
#X obj 101 55 t f b f b;
#X obj 101 192 outlet;
#X obj 190 193 outlet;
#X obj 101 21 inlet;
#X connect 0 0 1 1;
#X connect 0 0 6 0;
#X connect 1 0 0 1;
#X connect 2 0 3 1;
#X connect 3 0 2 1;
#X connect 3 0 5 0;
#X connect 4 0 3 0;
#X connect 4 1 2 0;
#X connect 4 2 0 0;
#X connect 4 3 1 0;
#X connect 7 0 4 0;
