#N canvas 0 24 1280 592 10;
#X obj 158 33 r med;
#X obj 38 43 r att;
#X obj 280 16 r delta;
#X obj 380 12 r theta;
#X obj 506 17 r lalpha;
#X obj 632 32 r halpha;
#X obj 1124 20 r hgamma;
#X obj 969 27 r lgamma;
#X obj 864 30 r hbeta;
#X obj 754 29 r lbeta;
#X obj 65 86 min_max;
#X obj 38 63 t f f;
#X obj 37 192 map 0 \$1 0 127;
#X obj 37 297 makenote;
#X floatatom 68 258 5 0 0 0 - - -;
#X floatatom 108 268 5 0 0 0 - - -;
#X obj 185 87 min_max;
#X obj 158 64 t f f;
#X obj 157 193 map 0 \$1 0 127;
#X obj 157 298 makenote;
#X floatatom 188 259 5 0 0 0 - - -;
#X floatatom 228 269 5 0 0 0 - - -;
#X obj 307 99 min_max;
#X obj 280 76 t f f;
#X obj 279 205 map 0 \$1 0 127;
#X obj 279 310 makenote;
#X floatatom 310 271 5 0 0 0 - - -;
#X floatatom 350 281 5 0 0 0 - - -;
#X obj 416 100 min_max;
#X obj 389 77 t f f;
#X obj 388 206 map 0 \$1 0 127;
#X obj 388 311 makenote;
#X floatatom 419 272 5 0 0 0 - - -;
#X floatatom 459 282 5 0 0 0 - - -;
#X obj 532 99 min_max;
#X obj 505 76 t f f;
#X obj 504 205 map 0 \$1 0 127;
#X obj 504 310 makenote;
#X floatatom 535 271 5 0 0 0 - - -;
#X floatatom 575 281 5 0 0 0 - - -;
#X obj 659 114 min_max;
#X obj 632 91 t f f;
#X obj 631 220 map 0 \$1 0 127;
#X obj 631 325 makenote;
#X floatatom 662 286 5 0 0 0 - - -;
#X floatatom 702 296 5 0 0 0 - - -;
#X obj 780 111 min_max;
#X obj 753 88 t f f;
#X obj 752 217 map 0 \$1 0 127;
#X obj 752 322 makenote;
#X floatatom 783 283 5 0 0 0 - - -;
#X floatatom 823 293 5 0 0 0 - - -;
#X obj 891 109 min_max;
#X obj 864 86 t f f;
#X obj 863 215 map 0 \$1 0 127;
#X obj 863 320 makenote;
#X floatatom 894 281 5 0 0 0 - - -;
#X floatatom 934 291 5 0 0 0 - - -;
#X obj 1004 111 min_max;
#X obj 977 88 t f f;
#X obj 976 217 map 0 \$1 0 127;
#X obj 976 322 makenote;
#X floatatom 1007 283 5 0 0 0 - - -;
#X floatatom 1047 293 5 0 0 0 - - -;
#X obj 1131 112 min_max;
#X obj 1104 89 t f f;
#X obj 1103 323 makenote;
#X floatatom 1130 298 5 0 0 0 - - -;
#X floatatom 1177 313 5 0 0 0 - - -;
#X obj 37 216 i;
#X obj 157 217 i;
#X obj 278 229 i;
#X obj 388 229 i;
#X obj 506 230 i;
#X obj 632 242 i;
#X obj 752 243 i;
#X obj 862 247 i;
#X obj 977 244 i;
#X obj 1104 244 i;
#X obj 37 371 noteout;
#X floatatom 82 320 5 0 0 0 - - -;
#X floatatom 37 320 5 0 0 0 - - -;
#X floatatom 120 354 5 0 0 0 - - -;
#X obj 159 390 noteout;
#X floatatom 204 339 5 0 0 0 - - -;
#X floatatom 159 339 5 0 0 0 - - -;
#X floatatom 242 373 5 0 0 0 - - -;
#X obj 279 388 noteout;
#X floatatom 324 337 5 0 0 0 - - -;
#X floatatom 279 337 5 0 0 0 - - -;
#X floatatom 362 371 5 0 0 0 - - -;
#X obj 396 396 noteout;
#X floatatom 441 345 5 0 0 0 - - -;
#X floatatom 396 345 5 0 0 0 - - -;
#X floatatom 479 379 5 0 0 0 - - -;
#X obj 516 396 noteout;
#X floatatom 561 345 5 0 0 0 - - -;
#X floatatom 516 345 5 0 0 0 - - -;
#X floatatom 599 379 5 0 0 0 - - -;
#X obj 632 396 noteout;
#X floatatom 677 345 5 0 0 0 - - -;
#X floatatom 632 345 5 0 0 0 - - -;
#X floatatom 715 379 5 0 0 0 - - -;
#X obj 751 398 noteout;
#X floatatom 796 347 5 0 0 0 - - -;
#X floatatom 751 347 5 0 0 0 - - -;
#X floatatom 834 381 5 0 0 0 - - -;
#X obj 869 401 noteout;
#X floatatom 914 350 5 0 0 0 - - -;
#X floatatom 869 350 5 0 0 0 - - -;
#X floatatom 952 384 5 0 0 0 - - -;
#X obj 984 406 noteout;
#X floatatom 1029 355 5 0 0 0 - - -;
#X floatatom 984 355 5 0 0 0 - - -;
#X floatatom 1067 389 5 0 0 0 - - -;
#X obj 1101 406 noteout;
#X floatatom 1146 355 5 0 0 0 - - -;
#X floatatom 1101 355 5 0 0 0 - - -;
#X floatatom 1184 389 5 0 0 0 - - -;
#X text 208 440 bon \, ceci est une simple ébauche \, mais normalement
il y a du son qui doit sortir \, faut juste régler les valeurs à la
main... Je revois ça demain si tout va bien...;
#X text 207 481 Il faut juste penser à ouvrir les canneaux des valeurs
(cases grises sur le patch principal à cocher);
#X obj 67 113 t b b;
#X obj 39 421 ctlout;
#X floatatom 57 392 5 0 0 0 - - -;
#X floatatom 95 399 5 0 0 0 - - -;
#X text 660 452 A revoir;
#X obj 1103 218 map 0 \$1 0 7;
#X obj 1117 271 s hgam07;
#X connect 0 0 17 0;
#X connect 1 0 11 0;
#X connect 2 0 23 0;
#X connect 3 0 29 0;
#X connect 4 0 35 0;
#X connect 5 0 41 0;
#X connect 6 0 65 0;
#X connect 7 0 59 0;
#X connect 8 0 53 0;
#X connect 9 0 47 0;
#X connect 10 0 121 0;
#X connect 10 1 12 2;
#X connect 11 0 12 0;
#X connect 11 1 10 0;
#X connect 12 0 69 0;
#X connect 13 0 81 0;
#X connect 13 1 80 0;
#X connect 14 0 13 1;
#X connect 15 0 13 2;
#X connect 16 1 18 2;
#X connect 17 0 18 0;
#X connect 17 1 16 0;
#X connect 18 0 70 0;
#X connect 19 0 85 0;
#X connect 19 1 84 0;
#X connect 20 0 19 1;
#X connect 21 0 19 2;
#X connect 22 1 24 2;
#X connect 23 0 24 0;
#X connect 23 1 22 0;
#X connect 24 0 71 0;
#X connect 25 0 89 0;
#X connect 25 1 88 0;
#X connect 26 0 25 1;
#X connect 27 0 25 2;
#X connect 28 1 30 2;
#X connect 29 0 30 0;
#X connect 29 1 28 0;
#X connect 30 0 72 0;
#X connect 31 0 93 0;
#X connect 31 1 92 0;
#X connect 32 0 31 1;
#X connect 33 0 31 2;
#X connect 34 1 36 2;
#X connect 35 0 36 0;
#X connect 35 1 34 0;
#X connect 36 0 73 0;
#X connect 37 0 97 0;
#X connect 37 1 96 0;
#X connect 38 0 37 1;
#X connect 39 0 37 2;
#X connect 40 1 42 2;
#X connect 41 0 42 0;
#X connect 41 1 40 0;
#X connect 42 0 74 0;
#X connect 43 0 101 0;
#X connect 43 1 100 0;
#X connect 44 0 43 1;
#X connect 45 0 43 2;
#X connect 46 1 48 2;
#X connect 47 0 48 0;
#X connect 47 1 46 0;
#X connect 48 0 75 0;
#X connect 49 0 105 0;
#X connect 49 1 104 0;
#X connect 50 0 49 1;
#X connect 51 0 49 2;
#X connect 52 1 54 2;
#X connect 53 0 54 0;
#X connect 53 1 52 0;
#X connect 54 0 76 0;
#X connect 55 0 109 0;
#X connect 55 1 108 0;
#X connect 56 0 55 1;
#X connect 57 0 55 2;
#X connect 58 1 60 2;
#X connect 59 0 60 0;
#X connect 59 1 58 0;
#X connect 60 0 77 0;
#X connect 61 0 113 0;
#X connect 61 1 112 0;
#X connect 62 0 61 1;
#X connect 63 0 61 2;
#X connect 64 1 126 2;
#X connect 65 0 126 0;
#X connect 65 1 64 0;
#X connect 66 0 117 0;
#X connect 66 1 116 0;
#X connect 67 0 66 1;
#X connect 68 0 66 2;
#X connect 69 0 13 0;
#X connect 70 0 19 0;
#X connect 71 0 25 0;
#X connect 72 0 31 0;
#X connect 73 0 37 0;
#X connect 74 0 43 0;
#X connect 75 0 49 0;
#X connect 76 0 55 0;
#X connect 77 0 61 0;
#X connect 78 0 66 0;
#X connect 78 0 127 0;
#X connect 80 0 79 1;
#X connect 81 0 79 0;
#X connect 81 0 122 0;
#X connect 82 0 79 2;
#X connect 84 0 83 1;
#X connect 85 0 83 0;
#X connect 86 0 83 2;
#X connect 88 0 87 1;
#X connect 89 0 87 0;
#X connect 90 0 87 2;
#X connect 92 0 91 1;
#X connect 93 0 91 0;
#X connect 94 0 91 2;
#X connect 96 0 95 1;
#X connect 97 0 95 0;
#X connect 98 0 95 2;
#X connect 100 0 99 1;
#X connect 101 0 99 0;
#X connect 102 0 99 2;
#X connect 104 0 103 1;
#X connect 105 0 103 0;
#X connect 106 0 103 2;
#X connect 108 0 107 1;
#X connect 109 0 107 0;
#X connect 110 0 107 2;
#X connect 112 0 111 1;
#X connect 113 0 111 0;
#X connect 114 0 111 2;
#X connect 116 0 115 1;
#X connect 117 0 115 0;
#X connect 118 0 115 2;
#X connect 121 0 14 0;
#X connect 121 1 15 0;
#X connect 123 0 122 1;
#X connect 124 0 122 2;
#X connect 126 0 78 0;
